<?xml version="1.0" standalone="no"?>
<!DOCTYPE svg PUBLIC "-//W3C//DTD SVG 20010904//EN"
 "http://www.w3.org/TR/2001/REC-SVG-20010904/DTD/svg10.dtd">
<svg version="1.0" xmlns="http://www.w3.org/2000/svg"
 width="600.000000pt" height="600.000000pt" viewBox="0 0 600.000000 600.000000"
 preserveAspectRatio="xMidYMid meet">
<g transform="translate(0.000000,600.000000) scale(0.100000,-0.100000)"
fill="#000000" stroke="none">
<path d="M1878 5063 l-3 -188 -187 -3 -188 -2 0 -185 0 -185 -185 0 -185 0 -2
-187 -3 -188 -187 -3 -188 -2 0 -1120 0 -1120 188 -2 187 -3 3 -187 2 -188
185 0 185 0 0 -185 0 -185 188 -2 187 -3 3 -188 2 -187 280 0 280 0 0 375 0
375 -285 0 -285 0 0 185 0 185 -185 0 -185 0 0 190 0 190 190 0 190 0 0 -185
0 -185 280 0 280 0 0 185 0 185 -190 0 -190 0 0 185 0 185 -185 0 -185 0 0
565 0 565 185 0 185 0 0 375 0 375 190 0 190 0 0 -185 0 -185 560 0 560 0 0
185 0 185 190 0 190 0 0 -375 0 -375 185 0 185 0 0 -565 0 -565 -185 0 -185 0
0 -185 0 -185 -190 0 -190 0 0 -750 0 -750 280 0 280 0 2 187 3 188 188 3 187
2 0 185 0 185 185 0 185 0 2 188 3 187 188 3 187 2 0 1120 0 1120 -187 2 -188
3 -3 188 -2 187 -185 0 -185 0 0 185 0 185 -187 2 -188 3 -3 188 -2 187 -1120
0 -1120 0 -2 -187z"/>
</g>
</svg>
